<?xml version="1.0" encoding="UTF-8" standalone="no"?>
<svg xmlns="http://www.w3.org/2000/svg" xmlns:xlink="http://www.w3.org/1999/xlink" width="512" height="306">
  <defs>
    <linearGradient id="a">
      <stop offset="0" stop-color="#2d2d2d"/>
      <stop offset="1" stop-color="#bcbcbc"/>
    </linearGradient>
    <linearGradient id="b">
      <stop offset="0"/>
      <stop offset="1" stop-color="#fff"/>
    </linearGradient>
    <linearGradient xlink:href="#a" id="c" x1="325" x2="200" y1="176" y2="216" gradientUnits="userSpaceOnUse" spreadMethod="reflect"/>
    <linearGradient xlink:href="#b" id="d" x1="445" x2="1675" y1="737.36218" y2="737.36218" gradientTransform="matrix(.70244 0 0 .7 -.58535973 315.70865)" gradientUnits="userSpaceOnUse"/>
  </defs>
  <g transform="translate(0 -746.3622)">
    <path fill="url(#c)" d="M1 1h510v304H1z" transform="translate(0 746.3622)"/>
    <path fill="#c8c8c8" d="m1 1051.3622-1 1v-306l1 1z"/>
    <path fill="#323232" d="m511 1051.3622 1 1v-306l-1 1z"/>
    <path fill="#1e1e1e" d="m511 1051.3622 1 1H0l1-1z"/>
    <path fill="#dcdcdc" d="m511 747.3622 1-1H0l1 1z"/>
    <path fill="#323232" d="m20 1032.3622-1 1v-268l1 1z"/>
    <path fill="#1e1e1e" d="m492 766.3622 1-1H19l1 1z"/>
    <path fill="#c8c8c8" d="m492 766.3622 1-1v268l-1-1z"/>
    <path fill="#dcdcdc" d="m20 1032.3622-1 1h474l-1-1z"/>
    <g transform="matrix(.35119 0 0 .35185 20 662.08662)">
      <path fill="#666" d="M0 296.36218h168v441H0z"/>
      <path fill="#bfbfbf" d="M168 296.36218h144v441H168z"/>
      <path fill="#0000bf" d="M1032 296.36218h144v441h-144z"/>
      <path fill="#00bf00" d="M600 296.36218h144v441H600z"/>
      <path fill="#bf0000" d="M888 296.36218h144v441H888z"/>
      <path fill="#bf00bf" d="M744 296.36218h144v441H744z"/>
      <path fill="#00bfbf" d="M456 296.36218h144v441H456z"/>
      <path fill="#bfbf00" d="M312 296.36218h144v441H312z"/>
      <path fill="#666" d="M1176 296.36218h168v441h-168z"/>
      <path fill="#0ff" d="M0 737.36218h168v63H0z"/>
      <path fill="#ff0" d="M0 800.36218h168v63H0z"/>
      <path fill="#fff" d="M168 737.36218h144v63H168z"/>
      <path d="M168 800.36218h144v63H168z"/>
      <path fill="#bfbfbf" d="M312 737.36218h864v63H312z"/>
      <path fill="url(#d)" d="M312 800.36218h864v63H312z"/>
      <path fill="#00f" d="M1176 737.36218h168v63h-168z"/>
      <path fill="red" d="M1176 800.36218h168v63h-168z"/>
      <path fill="#262626" d="M0 863.36218h168v189H0z"/>
      <path d="M168 863.36218h216v189H168z"/>
      <path fill="#fff" d="M384 863.36218h288v189H384z"/>
      <path d="M672 863.36218h120v189H672zm120 0h48v189h-48zm48 0h48v189h-48z"/>
      <path fill="#050505" d="M888 863.36218h48v189h-48z"/>
      <path d="M936 863.36218h48v189h-48z"/>
      <path fill="#0a0a0a" d="M984 863.36218h48v189h-48z"/>
      <path d="M1032 863.36218h144v189h-144z"/>
      <path fill="#262626" d="M1176 863.36218h168v189h-168z"/>
    </g>
  </g>
</svg>